<svg width="200" height="50" viewBox="0 0 200 50" fill="none" xmlns="http://www.w3.org/2000/svg">
  <defs>
    <linearGradient id="socialGrad" x1="0%" y1="0%" x2="100%" y2="100%">
      <stop offset="0%" style="stop-color:#2563EB"/>
      <stop offset="100%" style="stop-color:#7C3AED"/>
    </linearGradient>
  </defs>
  
  <!-- WeChat Icon -->
  <g transform="translate(0, 5)">
    <rect width="40" height="40" rx="10" fill="url(#socialGrad)" opacity="0.8"/>
    <path d="M20 14C16 14 13 16.5 13 19.5C13 21.5 14 23 16 24C15.5 24.5 15 25.5 15 26.5C15 28 16.5 29 18 29C19 29 21 28.5 22 28C24 28.5 26 29 27 29C28.5 29 30 28 30 26.5C30 25.5 29.5 24.5 29 24C31 23 32 21.5 32 19.5C32 16.5 29 14 25 14C23.5 14 22 14.5 21 15.5C20 14.5 18.5 14 17 14H20Z" fill="white" opacity="0.9"/>
    <circle cx="17" cy="19" r="2" fill="#2563EB"/>
    <circle cx="23" cy="19" r="2" fill="#2563EB"/>
  </g>
  
  <!-- Weibo Icon -->
  <g transform="translate(50, 5)">
    <rect width="40" height="40" rx="10" fill="url(#socialGrad)" opacity="0.8"/>
    <ellipse cx="20" cy="22" rx="12" ry="9" fill="white" opacity="0.9"/>
    <circle cx="23" cy="20" r="2.5" fill="#2563EB"/>
    <circle cx="17" cy="24" r="1.5" fill="#7C3AED"/>
    <path d="M20 13V16" stroke="white" stroke-width="2" stroke-linecap="round" opacity="0.6"/>
  </g>
  
  <!-- LinkedIn Icon -->
  <g transform="translate(100, 5)">
    <rect width="40" height="40" rx="10" fill="url(#socialGrad)" opacity="0.8"/>
    <rect x="12" y="14" width="4" height="18" fill="white" opacity="0.9"/>
    <circle cx="14" cy="11" r="2" fill="white" opacity="0.9"/>
    <path d="M20 22V32M20 26C20 26 22 24 24 24C26 24 28 26 28 30V32" stroke="white" stroke-width="3" stroke-linecap="round" stroke-linejoin="round" opacity="0.9"/>
  </g>
  
  <!-- GitHub Icon -->
  <g transform="translate(150, 5)">
    <rect width="40" height="40" rx="10" fill="url(#socialGrad)" opacity="0.8"/>
    <path d="M20 12C15 12 11 16 11 21C11 25 13 28 16 29C16.5 29 16.5 28.5 16.5 28V25.5C16.5 25.5 16 26 15 26C14 26 13 25 13 24C13 23 14 22 15 22C16 22 17 23 17 24C17 26 19 26 20 26C22 26 23 25 23 23V20C23 18 24 17 25 17C25 17 26 19 26 21V28C26 28.5 26 29 26.5 29C29.5 28 31.5 25 31.5 21C31.5 16 27.5 12 22.5 12H20Z" fill="white" opacity="0.9"/>
  </g>
</svg>
